<svg width="20" height="26" viewBox="0 0 113 130" fill="none" xmlns="http://www.w3.org/2000/svg">
<g filter="url(#filter0_d)">
<path d="M108.306 82.8216V60.0238C108.306 54.7777 104.165 50.5245 99.056 50.5245C93.9478 50.5245 89.8064 54.7777 89.8064 60.0238H87.9565V54.3246C87.9565 49.078 83.8156 44.8253 78.7069 44.8253C73.5982 44.8253 69.4573 49.078 69.4573 54.3246V60.0238H67.6074V50.5245C67.6074 45.2784 63.4665 41.0256 58.3578 41.0256C53.2491 41.0256 49.1082 45.2784 49.1082 50.5245V60.0238H47.2583V12.5284C47.2583 7.28227 43.1169 3.0293 38.0082 3.0293C32.9 3.0293 28.7588 7.28227 28.7588 12.5284V78.0703L21.4405 67.7357C18.4359 63.4928 12.651 62.5547 8.51938 65.6402C4.38823 68.7258 3.47483 74.6667 6.47937 78.9097L36.0774 120.706C37.8183 123.163 40.599 124.618 43.5584 124.618H91.6563C95.9488 124.618 99.6772 121.585 100.66 117.294L108.06 84.9975C108.223 84.2844 108.306 83.5539 108.306 82.8216Z" fill="white"/>
<path d="M108.306 82.8216V60.0238C108.306 54.7777 104.165 50.5245 99.056 50.5245C93.9478 50.5245 89.8064 54.7777 89.8064 60.0238H87.9565V54.3246C87.9565 49.078 83.8156 44.8253 78.7069 44.8253C73.5982 44.8253 69.4573 49.078 69.4573 54.3246V60.0238H67.6074V50.5245C67.6074 45.2784 63.4665 41.0256 58.3578 41.0256C53.2491 41.0256 49.1082 45.2784 49.1082 50.5245V60.0238H47.2583V12.5284C47.2583 7.28227 43.1169 3.0293 38.0082 3.0293C32.9 3.0293 28.7588 7.28227 28.7588 12.5284V78.0703L21.4405 67.7357C18.4359 63.4928 12.651 62.5547 8.51938 65.6402C4.38823 68.7258 3.47483 74.6667 6.47937 78.9097L36.0774 120.706C37.8183 123.163 40.599 124.618 43.5584 124.618H91.6563C95.9488 124.618 99.6772 121.585 100.66 117.294L108.06 84.9975C108.223 84.2844 108.306 83.5539 108.306 82.8216Z" stroke="#1E2022" stroke-width="2"/>
</g>
<defs>
<filter id="filter0_d" x="0.709778" y="0.0292969" width="111.596" height="129.588" filterUnits="userSpaceOnUse" color-interpolation-filters="sRGB">
<feFlood flood-opacity="0" result="BackgroundImageFix"/>
<feColorMatrix in="SourceAlpha" type="matrix" values="0 0 0 0 0 0 0 0 0 0 0 0 0 0 0 0 0 0 127 0"/>
<feOffset dy="1"/>
<feGaussianBlur stdDeviation="1.5"/>
<feColorMatrix type="matrix" values="0 0 0 0 0 0 0 0 0 0 0 0 0 0 0 0 0 0 0.1 0"/>
<feBlend mode="normal" in2="BackgroundImageFix" result="effect1_dropShadow"/>
<feBlend mode="normal" in="SourceGraphic" in2="effect1_dropShadow" result="shape"/>
</filter>
</defs>
</svg>
