<svg width="20" height="30" viewBox="0 0 84 114" fill="none" xmlns="http://www.w3.org/2000/svg">
<g filter="url(#filter0_d)">
<path d="M81.7486 69.9165C86.1558 74.4145 82.878 82.0246 76.6033 81.8627L50.8535 81.1986C47.9263 81.1228 45.1349 82.4393 43.3191 84.7507L27.006 105.521C23.161 110.416 15.3558 108.207 14.6098 102.012L4.07422 14.5152C3.00704 5.65244 13.7007 0.460288 19.9288 6.81725L81.7486 69.9165Z" fill="white"/>
<path d="M81.7486 69.9165C86.1558 74.4145 82.878 82.0246 76.6033 81.8627L50.8535 81.1986C47.9263 81.1228 45.1349 82.4393 43.3191 84.7507L27.006 105.521C23.161 110.416 15.3558 108.207 14.6098 102.012L4.07422 14.5152C3.00704 5.65244 13.7007 0.460288 19.9288 6.81725L81.7486 69.9165Z" stroke="#1E2022" stroke-width="2"/>
</g>
<defs>
<filter id="filter0_d" x="-0.000488281" y="0.994629" width="87.7737" height="112.203" filterUnits="userSpaceOnUse" color-interpolation-filters="sRGB">
<feFlood flood-opacity="0" result="BackgroundImageFix"/>
<feColorMatrix in="SourceAlpha" type="matrix" values="0 0 0 0 0 0 0 0 0 0 0 0 0 0 0 0 0 0 127 0"/>
<feOffset dy="1"/>
<feGaussianBlur stdDeviation="1.5"/>
<feColorMatrix type="matrix" values="0 0 0 0 0 0 0 0 0 0 0 0 0 0 0 0 0 0 0.1 0"/>
<feBlend mode="normal" in2="BackgroundImageFix" result="effect1_dropShadow"/>
<feBlend mode="normal" in="SourceGraphic" in2="effect1_dropShadow" result="shape"/>
</filter>
</defs>
</svg>
